<?xml version="1.0" standalone="no"?>
<!DOCTYPE svg PUBLIC "-//W3C//DTD SVG 20010904//EN"
 "http://www.w3.org/TR/2001/REC-SVG-20010904/DTD/svg10.dtd">
<svg version="1.0" xmlns="http://www.w3.org/2000/svg"
 width="429.000000pt" height="429.000000pt" viewBox="0 0 429.000000 429.000000"
 preserveAspectRatio="xMidYMid meet">
<metadata>
Created by potrace 1.11, written by Peter Selinger 2001-2013
</metadata>
<g transform="translate(0.000000,429.000000) scale(0.100000,-0.100000)"
fill="#000000" stroke="none">
<path d="M357 4279 c-88 -21 -176 -94 -216 -179 l-26 -55 -2 -1771 c-3 -1560
-1 -1777 12 -1815 20 -58 47 -109 58 -109 5 0 6 -7 3 -16 -3 -8 -2 -12 3 -9 5
3 22 -7 38 -21 15 -15 22 -24 14 -19 -9 5 -12 4 -7 -3 4 -6 14 -8 23 -5 12 5
14 3 8 -7 -5 -8 -4 -11 2 -7 5 3 34 -3 64 -14 54 -21 59 -21 1804 -19 963 1
1762 2 1778 3 15 1 27 5 27 9 0 5 3 7 8 6 15 -4 80 34 118 69 21 21 43 36 49
34 5 -1 7 0 3 4 -4 4 5 30 20 59 l27 51 0 1790 0 1790 -24 52 c-28 62 -103
136 -169 166 l-47 22 -1765 2 c-1016 0 -1781 -3 -1803 -8z"/>
</g>
</svg>
